<?xml version="1.0" encoding="UTF-8"?>
<svg width="200" height="50" version="1.1" viewBox="0 0 200 50" xmlns="http://www.w3.org/2000/svg">
 <g fill="#2563eb">
  <path d="m22.5 10h5v30h-5z"/>
  <path d="m42.5 10h5v30h-5z"/>
  <path d="m22.5 22.5h25v5h-25z"/>
  <path d="m62.5 10h5v30h-5zm12.5 0h20v5h-15v10h12.5v5h-12.5v10h15v5h-20z"/>
  <path d="m107.5 10h20v5h-7.5v25h-5v-25h-7.5z"/>
  <path d="m132.5 10h5v30h-5z"/>
  <path d="m142.5 10h20v5h-7.5v25h-5v-25h-7.5z"/>
  <path d="m167.5 10h5v30h-5z"/>
 </g>
</svg>
